<mxfile host="app.diagrams.net" modified="2024-04-21T13:06:05.605Z" agent="Mozilla/5.0 (Windows NT 10.0; Win64; x64) AppleWebKit/537.36 (KHTML, like Gecko) Chrome/124.0.0.0 Safari/537.36" etag="eTkGbBCb7JxIoNJ9hZUW" version="24.2.5" type="github">
  <diagram id="R2lEEEUBdFMjLlhIrx00" name="Page-1">
    <mxGraphModel dx="1221" dy="636" grid="1" gridSize="10" guides="1" tooltips="1" connect="1" arrows="1" fold="1" page="1" pageScale="1" pageWidth="850" pageHeight="1100" math="0" shadow="0" extFonts="Permanent Marker^https://fonts.googleapis.com/css?family=Permanent+Marker">
      <root>
        <mxCell id="0" />
        <mxCell id="1" parent="0" />
        <mxCell id="yyVqqnV53adlV-f3t3Kz-1" value="管理员" style="rounded=0;whiteSpace=wrap;html=1;" parent="1" vertex="1">
          <mxGeometry x="140" y="190" width="70" height="30" as="geometry" />
        </mxCell>
        <mxCell id="yyVqqnV53adlV-f3t3Kz-9" value="博客" style="rounded=0;whiteSpace=wrap;html=1;" parent="1" vertex="1">
          <mxGeometry x="475" y="190" width="70" height="30" as="geometry" />
        </mxCell>
        <mxCell id="yyVqqnV53adlV-f3t3Kz-18" value="评论" style="rounded=0;whiteSpace=wrap;html=1;" parent="1" vertex="1">
          <mxGeometry x="140" y="400" width="70" height="30" as="geometry" />
        </mxCell>
        <mxCell id="yyVqqnV53adlV-f3t3Kz-26" value="分类" style="rounded=0;whiteSpace=wrap;html=1;" parent="1" vertex="1">
          <mxGeometry x="475" y="400" width="70" height="30" as="geometry" />
        </mxCell>
        <mxCell id="yyVqqnV53adlV-f3t3Kz-33" value="标签" style="rounded=0;whiteSpace=wrap;html=1;" parent="1" vertex="1">
          <mxGeometry x="375" y="400" width="70" height="30" as="geometry" />
        </mxCell>
        <mxCell id="yyVqqnV53adlV-f3t3Kz-58" value="发布" style="rhombus;whiteSpace=wrap;html=1;" parent="1" vertex="1">
          <mxGeometry x="300" y="185" width="80" height="40" as="geometry" />
        </mxCell>
        <mxCell id="yyVqqnV53adlV-f3t3Kz-70" value="属于" style="rhombus;whiteSpace=wrap;html=1;" parent="1" vertex="1">
          <mxGeometry x="470" y="320" width="80" height="40" as="geometry" />
        </mxCell>
        <mxCell id="yyVqqnV53adlV-f3t3Kz-76" value="包含" style="rhombus;whiteSpace=wrap;html=1;" parent="1" vertex="1">
          <mxGeometry x="370" y="320" width="80" height="40" as="geometry" />
        </mxCell>
        <mxCell id="yyVqqnV53adlV-f3t3Kz-87" value="" style="endArrow=none;html=1;rounded=0;entryX=0.5;entryY=1;entryDx=0;entryDy=0;exitX=0.5;exitY=0;exitDx=0;exitDy=0;" parent="1" source="yyVqqnV53adlV-f3t3Kz-70" target="yyVqqnV53adlV-f3t3Kz-9" edge="1">
          <mxGeometry width="50" height="50" relative="1" as="geometry">
            <mxPoint x="330" y="260" as="sourcePoint" />
            <mxPoint x="215" y="230" as="targetPoint" />
          </mxGeometry>
        </mxCell>
        <mxCell id="yyVqqnV53adlV-f3t3Kz-120" value="N" style="edgeLabel;html=1;align=center;verticalAlign=middle;resizable=0;points=[];" parent="yyVqqnV53adlV-f3t3Kz-87" vertex="1" connectable="0">
          <mxGeometry x="-0.1599" y="-2" relative="1" as="geometry">
            <mxPoint as="offset" />
          </mxGeometry>
        </mxCell>
        <mxCell id="yyVqqnV53adlV-f3t3Kz-88" value="" style="endArrow=none;html=1;rounded=0;entryX=1;entryY=0.5;entryDx=0;entryDy=0;exitX=0;exitY=0.5;exitDx=0;exitDy=0;" parent="1" source="yyVqqnV53adlV-f3t3Kz-58" target="yyVqqnV53adlV-f3t3Kz-1" edge="1">
          <mxGeometry width="50" height="50" relative="1" as="geometry">
            <mxPoint x="300" y="220" as="sourcePoint" />
            <mxPoint x="225" y="240" as="targetPoint" />
          </mxGeometry>
        </mxCell>
        <mxCell id="yyVqqnV53adlV-f3t3Kz-112" value="1" style="edgeLabel;html=1;align=center;verticalAlign=middle;resizable=0;points=[];" parent="yyVqqnV53adlV-f3t3Kz-88" vertex="1" connectable="0">
          <mxGeometry x="-0.0769" y="1" relative="1" as="geometry">
            <mxPoint as="offset" />
          </mxGeometry>
        </mxCell>
        <mxCell id="yyVqqnV53adlV-f3t3Kz-103" value="" style="endArrow=none;html=1;rounded=0;entryX=0.5;entryY=0;entryDx=0;entryDy=0;exitX=0.5;exitY=1;exitDx=0;exitDy=0;" parent="1" source="yyVqqnV53adlV-f3t3Kz-76" target="yyVqqnV53adlV-f3t3Kz-33" edge="1">
          <mxGeometry width="50" height="50" relative="1" as="geometry">
            <mxPoint x="380" y="360" as="sourcePoint" />
            <mxPoint x="305" y="380" as="targetPoint" />
          </mxGeometry>
        </mxCell>
        <mxCell id="yyVqqnV53adlV-f3t3Kz-122" value="M" style="edgeLabel;html=1;align=center;verticalAlign=middle;resizable=0;points=[];" parent="yyVqqnV53adlV-f3t3Kz-103" vertex="1" connectable="0">
          <mxGeometry x="-0.3251" y="-1" relative="1" as="geometry">
            <mxPoint as="offset" />
          </mxGeometry>
        </mxCell>
        <mxCell id="yyVqqnV53adlV-f3t3Kz-104" value="" style="endArrow=none;html=1;rounded=0;entryX=0.5;entryY=0;entryDx=0;entryDy=0;exitX=0.5;exitY=1;exitDx=0;exitDy=0;" parent="1" source="yyVqqnV53adlV-f3t3Kz-70" target="yyVqqnV53adlV-f3t3Kz-26" edge="1">
          <mxGeometry width="50" height="50" relative="1" as="geometry">
            <mxPoint x="390" y="370" as="sourcePoint" />
            <mxPoint x="315" y="390" as="targetPoint" />
          </mxGeometry>
        </mxCell>
        <mxCell id="yyVqqnV53adlV-f3t3Kz-118" value="1" style="edgeLabel;html=1;align=center;verticalAlign=middle;resizable=0;points=[];" parent="yyVqqnV53adlV-f3t3Kz-104" vertex="1" connectable="0">
          <mxGeometry x="-0.1909" y="3" relative="1" as="geometry">
            <mxPoint as="offset" />
          </mxGeometry>
        </mxCell>
        <mxCell id="yyVqqnV53adlV-f3t3Kz-109" value="" style="endArrow=none;html=1;rounded=0;entryX=0.5;entryY=1;entryDx=0;entryDy=0;exitX=0.5;exitY=0;exitDx=0;exitDy=0;" parent="1" source="yyVqqnV53adlV-f3t3Kz-76" target="yyVqqnV53adlV-f3t3Kz-9" edge="1">
          <mxGeometry width="50" height="50" relative="1" as="geometry">
            <mxPoint x="455" y="470" as="sourcePoint" />
            <mxPoint x="380" y="490" as="targetPoint" />
          </mxGeometry>
        </mxCell>
        <mxCell id="yyVqqnV53adlV-f3t3Kz-121" value="N" style="edgeLabel;html=1;align=center;verticalAlign=middle;resizable=0;points=[];" parent="yyVqqnV53adlV-f3t3Kz-109" vertex="1" connectable="0">
          <mxGeometry x="-0.1199" y="-2" relative="1" as="geometry">
            <mxPoint as="offset" />
          </mxGeometry>
        </mxCell>
        <mxCell id="yyVqqnV53adlV-f3t3Kz-110" value="" style="endArrow=none;html=1;rounded=0;entryX=0.5;entryY=0;entryDx=0;entryDy=0;exitX=0.5;exitY=1;exitDx=0;exitDy=0;" parent="1" source="yyVqqnV53adlV-f3t3Kz-1" target="yyVqqnV53adlV-f3t3Kz-123" edge="1">
          <mxGeometry width="50" height="50" relative="1" as="geometry">
            <mxPoint x="445" y="490" as="sourcePoint" />
            <mxPoint x="370" y="510" as="targetPoint" />
          </mxGeometry>
        </mxCell>
        <mxCell id="yyVqqnV53adlV-f3t3Kz-125" value="1" style="edgeLabel;html=1;align=center;verticalAlign=middle;resizable=0;points=[];" parent="yyVqqnV53adlV-f3t3Kz-110" vertex="1" connectable="0">
          <mxGeometry x="0.2884" y="5" relative="1" as="geometry">
            <mxPoint y="1" as="offset" />
          </mxGeometry>
        </mxCell>
        <mxCell id="yyVqqnV53adlV-f3t3Kz-111" value="" style="endArrow=none;html=1;rounded=0;entryX=0;entryY=0.5;entryDx=0;entryDy=0;exitX=1;exitY=0.5;exitDx=0;exitDy=0;" parent="1" source="yyVqqnV53adlV-f3t3Kz-58" target="yyVqqnV53adlV-f3t3Kz-9" edge="1">
          <mxGeometry width="50" height="50" relative="1" as="geometry">
            <mxPoint x="530" y="450" as="sourcePoint" />
            <mxPoint x="455" y="470" as="targetPoint" />
          </mxGeometry>
        </mxCell>
        <mxCell id="yyVqqnV53adlV-f3t3Kz-113" value="N" style="edgeLabel;html=1;align=center;verticalAlign=middle;resizable=0;points=[];" parent="yyVqqnV53adlV-f3t3Kz-111" vertex="1" connectable="0">
          <mxGeometry x="0.0501" y="2" relative="1" as="geometry">
            <mxPoint as="offset" />
          </mxGeometry>
        </mxCell>
        <mxCell id="yyVqqnV53adlV-f3t3Kz-123" value="发布" style="rhombus;whiteSpace=wrap;html=1;" parent="1" vertex="1">
          <mxGeometry x="135" y="280" width="80" height="40" as="geometry" />
        </mxCell>
        <mxCell id="yyVqqnV53adlV-f3t3Kz-124" value="" style="endArrow=none;html=1;rounded=0;entryX=0.5;entryY=0;entryDx=0;entryDy=0;exitX=0.5;exitY=1;exitDx=0;exitDy=0;" parent="1" source="yyVqqnV53adlV-f3t3Kz-123" target="yyVqqnV53adlV-f3t3Kz-18" edge="1">
          <mxGeometry width="50" height="50" relative="1" as="geometry">
            <mxPoint x="185" y="230" as="sourcePoint" />
            <mxPoint x="210" y="270" as="targetPoint" />
          </mxGeometry>
        </mxCell>
        <mxCell id="yyVqqnV53adlV-f3t3Kz-126" value="N" style="edgeLabel;html=1;align=center;verticalAlign=middle;resizable=0;points=[];" parent="yyVqqnV53adlV-f3t3Kz-124" vertex="1" connectable="0">
          <mxGeometry x="0.0217" y="-3" relative="1" as="geometry">
            <mxPoint as="offset" />
          </mxGeometry>
        </mxCell>
        <mxCell id="yyVqqnV53adlV-f3t3Kz-127" value="包含" style="rhombus;whiteSpace=wrap;html=1;" parent="1" vertex="1">
          <mxGeometry x="290" y="280" width="80" height="40" as="geometry" />
        </mxCell>
        <mxCell id="yyVqqnV53adlV-f3t3Kz-129" value="" style="endArrow=none;html=1;rounded=0;entryX=1;entryY=0.5;entryDx=0;entryDy=0;exitX=0;exitY=0.5;exitDx=0;exitDy=0;" parent="1" source="yyVqqnV53adlV-f3t3Kz-9" target="yyVqqnV53adlV-f3t3Kz-127" edge="1">
          <mxGeometry width="50" height="50" relative="1" as="geometry">
            <mxPoint x="359" y="404" as="sourcePoint" />
            <mxPoint x="255" y="390" as="targetPoint" />
          </mxGeometry>
        </mxCell>
        <mxCell id="yyVqqnV53adlV-f3t3Kz-131" value="1" style="edgeLabel;html=1;align=center;verticalAlign=middle;resizable=0;points=[];" parent="yyVqqnV53adlV-f3t3Kz-129" vertex="1" connectable="0">
          <mxGeometry x="0.0101" y="3" relative="1" as="geometry">
            <mxPoint as="offset" />
          </mxGeometry>
        </mxCell>
        <mxCell id="yyVqqnV53adlV-f3t3Kz-130" value="" style="endArrow=none;html=1;rounded=0;entryX=1;entryY=0.5;entryDx=0;entryDy=0;exitX=0;exitY=0.5;exitDx=0;exitDy=0;" parent="1" source="yyVqqnV53adlV-f3t3Kz-127" target="yyVqqnV53adlV-f3t3Kz-18" edge="1">
          <mxGeometry width="50" height="50" relative="1" as="geometry">
            <mxPoint x="369" y="414" as="sourcePoint" />
            <mxPoint x="265" y="400" as="targetPoint" />
          </mxGeometry>
        </mxCell>
        <mxCell id="yyVqqnV53adlV-f3t3Kz-133" value="N" style="edgeLabel;html=1;align=center;verticalAlign=middle;resizable=0;points=[];" parent="yyVqqnV53adlV-f3t3Kz-130" vertex="1" connectable="0">
          <mxGeometry x="-0.1549" y="1" relative="1" as="geometry">
            <mxPoint x="1" as="offset" />
          </mxGeometry>
        </mxCell>
      </root>
    </mxGraphModel>
  </diagram>
</mxfile>
